<svg width="205" height="46" viewBox="0 0 205 46" fill="none" xmlns="http://www.w3.org/2000/svg">
<path fill-rule="evenodd" clip-rule="evenodd" d="M23.1482 38.5862C14.4816 38.5862 7.45206 31.6059 7.45206 23C7.45206 14.3941 14.4816 7.4138 23.1482 7.4138C29.0884 7.4138 34.2914 10.7814 36.9186 15.6911C37.2939 16.3924 37.6166 17.1253 37.8814 17.8843H44.1888C43.8999 16.7069 43.5132 15.567 43.0378 14.4734C39.948 7.3652 33.1114 2.2178 25.0333 1.51873C24.4119 1.46495 23.7832 1.4375 23.1482 1.4375C11.1594 1.4375 1.43359 11.143 1.43359 23C1.43359 34.857 11.1594 44.5625 23.1482 44.5625C33.3074 44.5625 41.8777 37.5344 44.1888 28.1157H37.9296C35.9435 33.8081 30.6989 38.0298 24.4176 38.5353C23.9989 38.569 23.5755 38.5862 23.1482 38.5862ZM19.9248 18.6875H25.9529C26.6645 18.6875 27.2416 19.2688 27.2419 19.9859L27.2444 26.0141C27.2447 26.7312 26.6681 27.3125 25.9565 27.3125H19.9284C19.2168 27.3125 18.6397 26.7312 18.6394 26.0141L18.6369 19.9859C18.6366 19.2688 19.2132 18.6875 19.9248 18.6875Z" fill="white"/>
<path d="M65.2893 36.9124C61.3664 36.9124 58.1056 35.6094 55.5067 33.0034C52.9078 30.3974 51.6084 27.189 51.6084 23.3784C51.6084 19.5677 52.9078 16.3594 55.5067 13.7533C58.1056 11.1473 61.3664 9.84433 65.2893 9.84433C68.2559 9.84433 70.9161 10.7171 73.2698 12.4626C75.648 14.1836 77.2049 16.4331 77.9404 19.2112H72.1665C71.6516 17.9328 70.7445 16.9125 69.445 16.1504C68.1701 15.3882 66.7849 15.0072 65.2893 15.0072C62.8375 15.0072 60.8393 15.8062 59.2947 17.4042C57.7501 19.0022 56.9778 20.9936 56.9778 23.3784C56.9778 25.7631 57.7501 27.7545 59.2947 29.3525C60.8393 30.9505 62.8375 31.7496 65.2893 31.7496C66.7849 31.7496 68.1701 31.3685 69.445 30.6064C70.7445 29.8442 71.6516 28.8239 72.1665 27.5455H77.9404C77.2049 30.3236 75.648 32.5854 73.2698 34.331C70.9161 36.0519 68.2559 36.9124 65.2893 36.9124Z" fill="white"/>
<path d="M96.633 34.1097C94.7451 35.9536 92.465 36.8755 89.7925 36.8755C87.1201 36.8755 84.84 35.9536 82.9521 34.1097C81.0642 32.2413 80.1203 29.9549 80.1203 27.2505C80.1203 24.5707 81.0642 22.2966 82.9521 20.4282C84.84 18.5597 87.1201 17.6255 89.7925 17.6255C92.465 17.6255 94.7451 18.5597 96.633 20.4282C98.5208 22.2966 99.4648 24.5707 99.4648 27.2505C99.4648 29.9549 98.5208 32.2413 96.633 34.1097ZM89.7925 32.1552C91.092 32.1552 92.1708 31.7004 93.0289 30.7907C93.9115 29.8565 94.3528 28.6764 94.3528 27.2505C94.3528 25.8246 93.9115 24.6568 93.0289 23.7471C92.1708 22.8129 91.092 22.3458 89.7925 22.3458C88.4686 22.3458 87.3653 22.8129 86.4826 23.7471C85.6245 24.6568 85.1955 25.8246 85.1955 27.2505C85.1955 28.6764 85.6245 29.8565 86.4826 30.7907C87.3653 31.7004 88.4686 32.1552 89.7925 32.1552Z" fill="white"/>
<path d="M108.137 44.1773H103.098V18.0311H108.137V20.0963C108.602 19.4325 109.313 18.8547 110.27 18.363C111.226 17.8713 112.292 17.6255 113.469 17.6255C115.896 17.6255 117.944 18.572 119.611 20.465C121.278 22.3581 122.112 24.6199 122.112 27.2505C122.112 29.8811 121.278 32.1429 119.611 34.036C117.944 35.929 115.896 36.8755 113.469 36.8755C112.292 36.8755 111.226 36.6297 110.27 36.138C109.313 35.6463 108.602 35.0685 108.137 34.4047V44.1773ZM108.982 30.8645C109.841 31.7987 110.968 32.2658 112.366 32.2658C113.763 32.2658 114.879 31.7987 115.713 30.8645C116.571 29.9303 117 28.7256 117 27.2505C117 25.7754 116.571 24.5707 115.713 23.6365C114.879 22.7023 113.763 22.2352 112.366 22.2352C110.968 22.2352 109.841 22.7023 108.982 23.6365C108.149 24.5707 107.732 25.7754 107.732 27.2505C107.732 28.7256 108.149 29.9303 108.982 30.8645Z" fill="white"/>
<path d="M130.835 44.1773H125.796V18.0311H130.835V20.0963C131.3 19.4325 132.011 18.8547 132.968 18.363C133.924 17.8713 134.99 17.6255 136.167 17.6255C138.594 17.6255 140.642 18.572 142.309 20.465C143.976 22.3581 144.81 24.6199 144.81 27.2505C144.81 29.8811 143.976 32.1429 142.309 34.036C140.642 35.929 138.594 36.8755 136.167 36.8755C134.99 36.8755 133.924 36.6297 132.968 36.138C132.011 35.6463 131.3 35.0685 130.835 34.4047V44.1773ZM131.68 30.8645C132.539 31.7987 133.666 32.2658 135.064 32.2658C136.461 32.2658 137.577 31.7987 138.411 30.8645C139.269 29.9303 139.698 28.7256 139.698 27.2505C139.698 25.7754 139.269 24.5707 138.411 23.6365C137.577 22.7023 136.461 22.2352 135.064 22.2352C133.666 22.2352 132.539 22.7023 131.68 23.6365C130.847 24.5707 130.43 25.7754 130.43 27.2505C130.43 28.7256 130.847 29.9303 131.68 30.8645Z" fill="white"/>
<path d="M156.953 36.8755C154.133 36.8755 151.816 35.9659 150.002 34.1466C148.212 32.3273 147.317 30.0163 147.317 27.2136C147.317 24.4601 148.225 22.1737 150.039 20.3544C151.878 18.5351 154.195 17.6255 156.99 17.6255C159.809 17.6255 162.151 18.5966 164.014 20.5388C165.877 22.4564 166.735 25.087 166.588 28.4306H152.245C152.344 29.5861 152.822 30.5572 153.68 31.3439C154.538 32.106 155.715 32.4871 157.21 32.4871C158.117 32.4871 158.914 32.315 159.601 31.9708C160.312 31.602 160.814 31.0981 161.109 30.4588H166.368C165.828 32.3519 164.7 33.9007 162.984 35.1054C161.268 36.2855 159.258 36.8755 156.953 36.8755ZM156.843 21.7189C155.69 21.7189 154.722 22.0262 153.937 22.6408C153.177 23.2309 152.675 24.0545 152.429 25.1116H161.072C160.802 23.9561 160.263 23.1079 159.454 22.5671C158.669 22.0016 157.799 21.7189 156.843 21.7189Z" fill="white"/>
<path d="M170.259 36.4699V18.0311H175.297V20.9813C175.616 20.0717 176.192 19.3218 177.025 18.7318C177.884 18.1172 178.827 17.8099 179.857 17.8099C180.495 17.8099 181.059 17.8836 181.549 18.0311V23.1571C180.74 22.8867 179.98 22.7515 179.269 22.7515C178.067 22.7515 177.099 23.194 176.363 24.079C175.652 24.9395 175.297 26.1319 175.297 27.6562V36.4699H170.259Z" fill="white"/>
<path d="M197.051 36.4699L192.785 31.0489L188.519 36.4699H182.451L189.586 27.4349L182.635 18.0311H188.593L192.749 23.6734L196.904 18.0311H202.899L195.948 27.4349L203.083 36.4699H197.051Z" fill="white"/>
</svg>
