<svg width="172" height="173" viewBox="0 0 172 173" fill="none" xmlns="http://www.w3.org/2000/svg">
<path fill-rule="evenodd" clip-rule="evenodd" d="M87.3071 148.953C52.4617 148.953 24.1982 120.965 24.1982 86.4582C24.1982 51.9516 52.4617 23.9629 87.3071 23.9629C114.603 23.9629 138.027 41.5996 146.544 65.9459H171.904C170.742 61.2252 169.188 56.6543 167.276 52.2695C154.853 23.768 127.366 3.12875 94.8864 0.325699C92.388 0.11008 89.86 0 87.3071 0C39.1043 0 0 38.9158 0 86.4582C0 134.001 39.1043 172.916 87.3071 172.916C128.154 172.916 162.612 144.736 171.904 106.97H146.738C138.752 129.795 117.666 146.723 92.411 148.749C90.7273 148.885 89.0252 148.953 87.3071 148.953ZM74.347 69.1666H98.5838C101.445 69.1666 103.765 71.4974 103.766 74.3726L103.776 98.5438C103.778 101.419 101.459 103.75 98.5982 103.75H74.3614C71.5003 103.75 69.18 101.419 69.1788 98.5438L69.1687 74.3726C69.1675 71.4974 71.4859 69.1666 74.347 69.1666Z" fill="#5F76F9"/>
</svg>
